<svg width="26" height="24" viewBox="0 0 26 24" fill="none" xmlns="http://www.w3.org/2000/svg">
<path fill-rule="evenodd" clip-rule="evenodd" d="M1.69227 1.59887C0 3.19776 0 5.7711 0 10.9178V21.3517C0 22.4197 0 22.9537 0.149442 23.2395C0.470167 23.8528 1.22193 24.147 1.90772 23.9277C2.22726 23.8254 2.62694 23.4479 3.42628 22.6927H3.42629L3.42632 22.6925C4.0745 22.0802 4.39859 21.7739 4.75572 21.5266C5.50413 21.0085 6.37363 20.6682 7.29065 20.5346C7.72824 20.4709 8.18658 20.4709 9.10324 20.4709H15.1667C19.9153 20.4709 22.2895 20.4709 23.8876 19.2317C24.1801 19.0049 24.4484 18.7515 24.6884 18.4751C26 16.9652 26 14.722 26 10.2354C26 5.74893 26 3.50568 24.6884 1.99582C24.4484 1.7194 24.1801 1.46596 23.8876 1.23912C22.2895 0 19.9153 0 15.1667 0H11.5556C6.10821 0 3.38455 0 1.69227 1.59887ZM6.5 12.2825C7.69662 12.2825 8.66667 11.366 8.66667 10.2354C8.66667 9.1049 7.69662 8.18835 6.5 8.18835C5.30338 8.18835 4.33333 9.1049 4.33333 10.2354C4.33333 11.366 5.30338 12.2825 6.5 12.2825ZM15.1667 10.2354C15.1667 11.366 14.1966 12.2825 13 12.2825C11.8034 12.2825 10.8333 11.366 10.8333 10.2354C10.8333 9.1049 11.8034 8.18835 13 8.18835C14.1966 8.18835 15.1667 9.1049 15.1667 10.2354ZM19.5 12.2825C20.6966 12.2825 21.6667 11.366 21.6667 10.2354C21.6667 9.1049 20.6966 8.18835 19.5 8.18835C18.3034 8.18835 17.3333 9.1049 17.3333 10.2354C17.3333 11.366 18.3034 12.2825 19.5 12.2825Z" fill="currentColor"/>
</svg>
