<svg width="20" height="15" viewBox="0 0 20 15" fill="none" xmlns="http://www.w3.org/2000/svg">
<path fill-rule="evenodd" clip-rule="evenodd" d="M2.68983 0.6056C3.2042 0.162464 3.84679 0 4.40441 0C4.77571 0 5.15988 0.1425 5.46956 0.282427C5.79785 0.430764 6.14092 0.623491 6.4495 0.8012C6.51652 0.839791 6.58159 0.877482 6.64478 0.914073C6.88483 1.05311 7.09777 1.17644 7.28757 1.27424C7.40548 1.33499 7.49707 1.37664 7.56521 1.40187C7.59393 1.41251 7.61229 1.41787 7.62171 1.42038C7.85217 1.41911 7.99899 1.4003 8.21099 1.37313C8.25654 1.3673 8.30499 1.36108 8.35799 1.35457C8.67317 1.31585 9.0709 1.27851 9.77281 1.27851C10.4747 1.27851 10.8725 1.31585 11.1876 1.35457C11.2406 1.36108 11.2892 1.3673 11.3346 1.37313C11.5467 1.4003 11.6935 1.41911 11.924 1.42038C11.9334 1.41787 11.9517 1.41252 11.9804 1.40187C12.0486 1.37664 12.1402 1.335 12.2581 1.27425C12.4479 1.17645 12.6608 1.05313 12.9009 0.914109C12.9641 0.877509 13.0292 0.839827 13.0962 0.801236C13.4047 0.623546 13.7478 0.430836 14.0761 0.282509C14.3858 0.142591 14.7699 0.000100136 15.1413 0.000100136C15.6988 0.000100136 16.3414 0.162563 16.8558 0.605709C17.389 1.06511 17.7093 1.76175 17.7093 2.67055V4.375V4.37768C17.7082 4.64492 17.6628 5.17962 17.5104 5.62655C17.4393 5.83509 17.3074 6.14073 17.0467 6.34991C16.9012 6.46664 16.7089 6.55791 16.4782 6.56964C16.2521 6.581 16.0507 6.51291 15.8864 6.41827L15.7832 6.35882L15.7063 6.26791C15.5661 6.10227 15.3917 5.93755 15.1729 5.77682C14.8694 5.554 14.804 5.12726 15.0269 4.82374C15.2497 4.52022 15.6764 4.45483 15.98 4.67769C16.0883 4.7572 16.1906 4.83893 16.2872 4.92278C16.3273 4.71533 16.345 4.49834 16.3456 4.37352V2.67055C16.3456 2.1021 16.158 1.80442 15.9657 1.63882C15.7546 1.45696 15.4542 1.36374 15.1413 1.36374C15.0773 1.36374 14.9173 1.3988 14.6375 1.52519C14.3764 1.64318 14.0847 1.80556 13.7766 1.98295C13.7188 2.01627 13.6599 2.0504 13.6005 2.0848C13.3571 2.22585 13.1054 2.37166 12.8826 2.48645C12.7421 2.55885 12.5956 2.62817 12.4541 2.68061C12.3234 2.72902 12.1427 2.78409 11.9492 2.78409C11.6112 2.78409 11.3743 2.75343 11.1469 2.724C11.1049 2.71856 11.0633 2.71318 11.0214 2.70803C10.7589 2.67578 10.4167 2.64215 9.77281 2.64215C9.12899 2.64215 8.78672 2.67578 8.52427 2.70803C8.48236 2.71318 8.44072 2.71856 8.39881 2.724C8.17145 2.75343 7.9345 2.78409 7.59645 2.78409C7.40297 2.78409 7.22223 2.72901 7.09153 2.6806C6.94998 2.62816 6.80351 2.55883 6.66297 2.48642C6.4402 2.37163 6.18855 2.2258 5.94514 2.08475C5.88575 2.05035 5.82686 2.01622 5.76899 1.98289C5.46093 1.80548 5.16922 1.6431 4.90807 1.5251C4.62831 1.39869 4.46837 1.36364 4.40441 1.36364C4.09147 1.36364 3.79097 1.45685 3.57988 1.63872C3.38767 1.80432 3.20004 2.10199 3.20004 2.67045V4.37353C3.20064 4.49835 3.2184 4.71533 3.25841 4.92278C3.35502 4.83892 3.45735 4.7572 3.56563 4.67769C3.86916 4.45483 4.29588 4.52022 4.51875 4.82375C4.74161 5.12726 4.67622 5.554 4.37269 5.77682C4.15387 5.93755 3.97952 6.10227 3.83937 6.26791C3.44748 6.731 3.28135 7.25182 3.21727 7.83855C3.16998 8.27155 3.17973 8.68664 3.19033 9.13764C3.19509 9.34046 3.20003 9.55046 3.20002 9.77273C3.20002 11.1662 4.11535 12.1183 5.50548 12.7577C6.89722 13.3979 8.60717 13.6364 9.77281 13.6364C10.9384 13.6364 12.6484 13.3979 14.0401 12.7577C15.4303 12.1182 16.3456 11.1662 16.3456 9.77273H17.7093C17.7093 11.9304 16.2305 13.2511 14.61 13.9965C12.9911 14.7413 11.0737 15 9.77281 15C8.47181 15 6.55452 14.7413 4.9356 13.9965C3.31508 13.2511 1.83638 11.9304 1.83638 9.77273C1.83639 9.61736 1.83244 9.44646 1.82826 9.26536C1.81701 8.77845 1.80407 8.21818 1.86169 7.69045C1.9173 7.18136 2.03968 6.65345 2.29786 6.14164C2.1648 5.96673 2.08514 5.77282 2.03528 5.62655C1.88282 5.17961 1.83746 4.64492 1.8364 4.37768V4.375V2.67045C1.8364 1.76165 2.15659 1.065 2.68983 0.6056Z" fill="#5C4033"/>
<path fill-rule="evenodd" clip-rule="evenodd" d="M9.02581 9.84511C9.25517 9.7562 9.52581 9.71584 9.79054 9.71584C10.0554 9.71584 10.3259 9.7562 10.5553 9.84511C10.6678 9.88866 10.8054 9.95739 10.9266 10.0684C11.0484 10.1799 11.2055 10.3863 11.2055 10.6817C11.2055 10.9772 11.0484 11.1836 10.9266 11.295C10.8054 11.4061 10.6678 11.4748 10.5553 11.5184C10.3259 11.6073 10.0554 11.6477 9.79054 11.6477C9.52581 11.6477 9.25517 11.6073 9.02581 11.5184C8.91326 11.4748 8.77563 11.4061 8.65445 11.295C8.53281 11.1836 8.37563 10.9772 8.37563 10.6817C8.37563 10.3863 8.53281 10.1799 8.65445 10.0684C8.77563 9.95739 8.91326 9.88866 9.02581 9.84511ZM11.6241 7.63311C11.7741 7.39093 12.0704 7.10229 12.5148 7.10229C12.9592 7.10229 13.2554 7.39093 13.4054 7.63311C13.5619 7.88575 13.6364 8.19202 13.6364 8.49439C13.6364 8.79666 13.5619 9.10293 13.4054 9.35557C13.2554 9.59775 12.9592 9.88639 12.5148 9.88639C12.0704 9.88639 11.7741 9.59775 11.6241 9.35557C11.4676 9.10293 11.3931 8.79666 11.3931 8.49439C11.3931 8.19202 11.4676 7.88575 11.6241 7.63311ZM6.16961 7.63311C6.31964 7.39093 6.61591 7.10229 7.0603 7.10229C7.5047 7.10229 7.80097 7.39093 7.95099 7.63311C8.10745 7.88575 8.18199 8.19202 8.18199 8.49439C8.18199 8.79666 8.10745 9.10293 7.95099 9.35557C7.80097 9.59775 7.5047 9.88639 7.0603 9.88639C6.61591 9.88639 6.31964 9.59775 6.16961 9.35557C6.01313 9.10293 5.9386 8.79666 5.9386 8.49439C5.9386 8.19202 6.01313 7.88575 6.16961 7.63311ZM15.1031 9.20457C15.1031 8.82802 15.4084 8.52275 15.7849 8.52275C16.0537 8.52275 16.376 8.58402 16.6764 8.65793C16.9897 8.73502 17.3304 8.83902 17.655 8.95002C18.2767 9.16266 18.9361 9.43375 19.234 9.62611C19.5503 9.83039 19.6411 10.2525 19.4368 10.5687C19.2325 10.8851 18.8104 10.9759 18.4942 10.7717C18.3522 10.6799 17.8384 10.4539 17.2139 10.2404C16.9154 10.1383 16.6145 10.047 16.3505 9.98202C16.0735 9.91393 15.8825 9.88639 15.7849 9.88639C15.4084 9.88639 15.1031 9.58111 15.1031 9.20457ZM14.5163 11.4773C14.5163 11.1007 14.8215 10.7955 15.1981 10.7955C15.7437 10.7955 16.3114 11.0458 16.7263 11.2651C17.0987 11.4619 17.4444 11.6879 17.6647 11.832C17.7029 11.8569 17.7373 11.8794 17.7674 11.8988C18.0837 12.1031 18.1745 12.5252 17.9703 12.8415C17.7659 13.1578 17.3439 13.2487 17.0275 13.0444C16.9902 13.0202 16.9504 12.9942 16.9083 12.9667C16.6853 12.8212 16.4001 12.635 16.0892 12.4707C15.6977 12.2638 15.3855 12.1591 15.1981 12.1591C14.8215 12.1591 14.5163 11.8538 14.5163 11.4773ZM2.3321 10.2404C1.70748 10.4539 1.19382 10.6799 1.0518 10.7717C0.735482 10.9759 0.313436 10.8851 0.109145 10.5687C-0.0951455 10.2525 -0.00432735 9.83039 0.311991 9.62611C0.609864 9.43375 1.26922 9.16266 1.89094 8.95002C2.21562 8.83902 2.55627 8.73502 2.86964 8.65793C3.16996 8.58402 3.49221 8.52275 3.76108 8.52275C4.13765 8.52275 4.4429 8.82802 4.4429 9.20457C4.4429 9.58111 4.13765 9.88639 3.76108 9.88639C3.66338 9.88639 3.47244 9.91393 3.19542 9.98202C2.93144 10.047 2.63059 10.1383 2.3321 10.2404ZM2.63725 12.9667C2.59521 12.9942 2.55536 13.0202 2.51797 13.0444C2.20165 13.2487 1.77961 13.1578 1.57532 12.8415C1.37103 12.5252 1.46185 12.1031 1.77817 11.8988C1.80829 11.8794 1.84267 11.8569 1.88081 11.832C2.10118 11.6879 2.4468 11.4619 2.81927 11.2651C3.23422 11.0458 3.8018 10.7955 4.34749 10.7955C4.72405 10.7955 5.02931 11.1007 5.02931 11.4773C5.02931 11.8538 4.72405 12.1591 4.34749 12.1591C4.16005 12.1591 3.84785 12.2638 3.45635 12.4707C3.14545 12.635 2.86028 12.8212 2.63725 12.9667Z" fill="#5C4033"/>
</svg>
