<svg width="27" height="24" viewBox="0 0 27 24" fill="none" xmlns="http://www.w3.org/2000/svg">
<path d="M0 8.2993V12.6896C0 14.4726 1.5122 15.9481 3.29608 15.9093C3.25901 15.5551 3.24 15.1955 3.24 14.8315V8.08989C3.24 4.95404 4.81626 2.18588 7.22063 0.532656L5.6731 0.941164C2.32928 1.82385 0 4.84498 0 8.2993Z" fill="currentColor"/>
<path d="M27 12.6896V8.2993C27 4.84498 24.6707 1.82385 21.3269 0.941164L19.7794 0.532656C22.1837 2.18588 23.76 4.95404 23.76 8.08989V14.8315C23.76 15.1955 23.741 15.5551 23.7039 15.9093C25.4878 15.9481 27 14.4726 27 12.6896Z" fill="currentColor"/>
<path fill-rule="evenodd" clip-rule="evenodd" d="M13.5955 0H12.42C7.94649 0 4.32 3.62197 4.32 8.08989V14.8315C4.32 19.8951 8.43003 24 13.5 24C18.5268 24 22.6099 19.9648 22.6791 14.9607C19.3722 15.5779 15.8406 14.3873 13.6099 11.5654C10.8756 8.10646 10.9811 3.31701 13.5955 0ZM11.07 9.16854C11.07 10.0621 10.3447 10.7865 9.45 10.7865C8.5553 10.7865 7.83 10.0621 7.83 9.16854C7.83 8.27495 8.5553 7.55056 9.45 7.55056C10.3447 7.55056 11.07 8.27495 11.07 9.16854ZM12.6994 14.0606C12.1029 14.0606 11.6194 14.5436 11.6194 15.1393C11.6194 15.735 12.1029 16.2179 12.6994 16.2179H12.9593C12.9392 16.796 12.4637 17.2584 11.88 17.2584C11.2835 17.2584 10.8 16.7755 10.8 16.1798C10.8 15.8819 10.5582 15.6404 10.26 15.6404C9.96177 15.6404 9.72 15.8819 9.72 16.1798C9.72 17.3712 10.6871 18.3371 11.88 18.3371C12.5251 18.3371 13.1042 18.0546 13.5 17.6067C13.8958 18.0546 14.4749 18.3371 15.12 18.3371C15.8024 18.3371 16.4111 18.0204 16.806 17.5283C17.1024 17.1591 17.28 16.6894 17.28 16.1798C17.28 15.8819 17.0382 15.6404 16.74 15.6404C16.4418 15.6404 16.2 15.8819 16.2 16.1798C16.2 16.4354 16.1117 16.6689 15.9634 16.8537C15.7645 17.1014 15.4608 17.2584 15.12 17.2584C14.5363 17.2584 14.0608 16.796 14.0407 16.2179H14.3194C14.9159 16.2179 15.3994 15.735 15.3994 15.1393C15.3994 14.5436 14.9159 14.0606 14.3194 14.0606H12.6994Z" fill="currentColor"/>
<path fill-rule="evenodd" clip-rule="evenodd" d="M14.9993 0.0326776C15.006 0.0258004 15.0124 0.0187915 15.0186 0.0116596C19.2882 0.23921 22.68 3.76894 22.68 8.08989V13.861C22.6768 13.8616 22.6736 13.8622 22.6704 13.8628L22.663 13.8643C19.6833 14.4901 16.4709 13.4439 14.4576 10.897C11.8587 7.60939 12.1599 2.96124 14.9993 0.0326776ZM18.9 9.16854C18.9 10.0621 18.1747 10.7865 17.28 10.7865C16.3853 10.7865 15.66 10.0621 15.66 9.16854C15.66 8.27495 16.3853 7.55056 17.28 7.55056C18.1747 7.55056 18.9 8.27495 18.9 9.16854Z" fill="currentColor"/>
</svg>
