<svg width="21" height="24" viewBox="0 0 21 24" fill="none" xmlns="http://www.w3.org/2000/svg">
<path d="M13.4402 20.875C13.2057 22.306 11.9294 23.4003 10.3904 23.4004C8.85133 23.4004 7.57504 22.306 7.34058 20.875C8.26608 20.954 9.28109 21 10.3904 21C11.4995 21 12.5147 20.954 13.4402 20.875ZM10.3904 0C14.4837 6.09037e-05 17.8025 3.22378 17.8025 7.2002V10.2861C17.8026 11.3987 18.174 12.481 18.8611 13.3711L20.4304 15.4043C21.0309 16.1821 20.8552 17.2476 19.9363 17.6328C18.2827 18.326 15.2364 19.2002 10.3904 19.2002C5.54455 19.2002 2.49822 18.326 0.844487 17.6328C-0.0744231 17.2476 -0.250142 16.1821 0.350347 15.4043L1.91968 13.3711C2.60676 12.481 2.97818 11.3986 2.97828 10.2861V7.2002C2.97828 3.22374 6.29698 0 10.3904 0Z" fill="currentColor"/>
</svg>
